Coordinates
version=1
nRows=8
nColumns=40
inDegrees=yes

Units are S.I. units (second, meters, Newtons, ...)
Angles are in degrees.

endheader
time	pelvis_tilt	pelvis_list	pelvis_rotation	pelvis_tx	pelvis_ty	pelvis_tz	hip_flexion_r	hip_adduction_r	hip_rotation_r	knee_angle_r	knee_angle_r_beta	ankle_angle_r	subtalar_angle_r	mtp_angle_r	hip_flexion_l	hip_adduction_l	hip_rotation_l	knee_angle_l	knee_angle_l_beta	ankle_angle_l	subtalar_angle_l	mtp_angle_l	lumbar_extension	lumbar_bending	lumbar_rotation	arm_flex_r	arm_add_r	arm_rot_r	elbow_flex_r	pro_sup_r	wrist_flex_r	wrist_dev_r	arm_flex_l	arm_add_l	arm_rot_l	elbow_flex_l	pro_sup_l	wrist_flex_l	wrist_dev_l
     27.95764286	     -2.73268157	     -5.29964954	      4.90189499	      0.91370164	      0.91738039	      0.45070715	     -4.39357712	      3.92208475	    -18.88963019	      9.10961050	      9.10961050	     17.69886597	     -0.70148389	     -3.56091364	     30.48752764	     -7.08543632	     -2.42256569	     20.06537133	     20.06537133	      2.65075821	     -8.25682483	      4.53493635	    -10.66279471	      4.19856278	      4.92500075	     36.15422431	    -13.08761811	      6.85921683	     89.53378925	     44.33715838	      0.00000000	      0.00000000	     -5.84837697	     -8.38578289	    -12.02064370	     27.24475665	     47.68997735	      0.00000000	      0.00000000
     27.97028571	     -2.82621289	     -5.23434464	      4.62169870	      0.91770562	      0.91566781	      0.44919460	     -4.59771030	      3.64144804	    -18.39516659	      9.81806319	      9.81806319	     18.47593162	     -1.12829929	     -2.88482163	     30.43493460	     -7.01687217	     -2.37009442	     21.10185500	     21.10185500	      1.82349229	     -9.70587831	      3.89220961	    -10.25532788	      3.92581045	      5.06664935	     35.36166064	    -13.07230277	      7.15356002	     88.72492447	     44.37499301	      0.00000000	      0.00000000	     -5.85222267	     -8.45257405	    -12.30264557	     27.36852448	     47.69634874	      0.00000000	      0.00000000
     27.98292857	     -2.77295959	     -5.13755325	      4.33110796	      0.92176169	      0.91436811	      0.44761744	     -4.96504687	      3.31974945	    -17.98842256	     10.49706616	     10.49706616	     19.02584248	     -1.43768618	     -2.63287982	     30.29711491	     -6.97837186	     -2.43153243	     22.30282633	     22.30282633	      1.50264056	    -10.67495674	      3.53113731	    -10.04935794	      3.62649208	      5.13529271	     34.48819041	    -13.00465278	      7.42615467	     88.12872657	     44.39247873	      0.00000000	      0.00000000	     -5.80549053	     -8.55237438	    -12.43545981	     27.42609934	     47.70109285	      0.00000000	      0.00000000
     27.99557143	     -2.72505620	     -4.96230870	      4.03294600	      0.92565716	      0.91345953	      0.44594547	     -5.07200200	      2.86564567	    -17.24801178	     11.66332325	     11.66332325	     19.87053137	     -2.30160791	     -1.16294375	     30.04604262	     -6.78575796	     -2.26631711	     23.24533992	     23.24533992	      1.07144496	    -11.94019358	      2.79613017	     -9.86800926	      3.21880136	      4.96419597	     33.70876760	    -12.79271488	      8.04883597	     86.90056157	     44.45143231	      0.00000000	      0.00000000	     -5.72314750	     -8.63728867	    -12.90391293	     27.44446241	     47.70334268	      0.00000000	      0.00000000
     28.00821429	     -2.48763019	     -4.81350762	      3.77971361	      0.92964216	      0.91327529	      0.44411934	     -5.58746710	      2.45743421	    -16.98542780	     12.35903732	     12.35903732	     19.92470574	     -2.49198239	     -1.20345642	     29.58287290	     -6.67075631	     -2.29042858	     24.19195243	     24.19195243	      1.37507415	    -12.46673033	      2.54274801	     -9.98939472	      2.86817476	      4.75507185	     32.44604630	    -12.65501994	      8.33298889	     86.45707442	     44.45332902	      0.00000000	      0.00000000	     -5.49288537	     -8.75000254	    -12.92880941	     27.52842209	     47.70811769	      0.00000000	      0.00000000
     28.02085714	     -2.57914727	     -4.59964736	      3.47510019	      0.93285453	      0.91259641	      0.44233336	     -4.74282718	      1.71383572	    -16.25234384	     14.94168291	     14.94168291	     20.37404494	     -4.06788578	     -1.36203463	     29.66439588	     -6.42590076	     -2.12300911	     25.36524906	     25.36524906	      1.66623109	    -13.36443383	      2.41271420	     -9.71129491	      2.39175809	      5.06061945	     31.41450918	    -12.92729127	      8.75660950	     85.20148742	     44.48793396	      0.00000000	      0.00000000	     -5.03695603	     -8.88166071	    -13.05579818	     27.66413400	     47.71410362	      0.00000000	      0.00000000
     28.03350000	     -2.46233086	     -4.41820586	      3.21249948	      0.93607884	      0.91282318	      0.44044547	     -4.24237865	      1.09853216	    -15.50638143	     17.19281239	     17.19281239	     20.34002319	     -5.62754612	     -1.46375100	     29.35838258	     -6.20616556	     -2.01041809	     26.24377219	     26.24377219	      2.30074807	    -14.01290812	      2.48818780	     -9.73966109	      1.98752076	      4.96906810	     30.36278785	    -12.93517239	      9.33739884	     83.90927386	     44.52302913	      0.00000000	      0.00000000	     -4.57576259	     -9.00547472	    -13.18540988	     27.66106998	     47.71075037	      0.00000000	      0.00000000
     28.04614286	     -1.97227070	     -4.43379836	      3.08729814	      0.93950180	      0.91409453	      0.43843800	     -4.34184531	      0.71759980	    -15.31748639	     19.04019780	     19.04019780	     19.97376372	     -6.26855619	     -1.67765354	     28.54619058	     -6.17400745	     -1.80220102	     26.89300368	     26.89300368	      3.01616150	    -14.33067712	      2.21309302	    -10.23956412	      1.82123667	      4.69656653	     28.85005561	    -12.81592978	      9.72537505	     83.18128338	     44.53046581	      0.00000000	      0.00000000	     -4.10960297	     -9.13430984	    -13.20289465	     27.81282310	     47.71652125	      0.00000000	      0.00000000
